<?xml version="1.0" standalone="no"?>
<!DOCTYPE svg PUBLIC "-//W3C//DTD SVG 20010904//EN"
 "http://www.w3.org/TR/2001/REC-SVG-20010904/DTD/svg10.dtd">
<svg version="1.0" xmlns="http://www.w3.org/2000/svg"
 width="144.000000pt" height="144.000000pt" viewBox="0 0 144.000000 144.000000"
 preserveAspectRatio="xMidYMid meet">
<metadata>
Created by potrace 1.14, written by Peter Selinger 2001-2017
</metadata>
<g transform="translate(0.000000,144.000000) scale(0.100000,-0.100000)"
fill="#000000" stroke="none">
<path d="M187 1083 c-4 -3 -7 -80 -7 -170 0 -133 -3 -170 -17 -196 l-16 -32
-19 58 c-18 51 -38 76 -38 45 0 -23 44 -148 52 -148 5 0 14 12 21 27 11 25 12
19 17 -62 l5 -90 545 0 545 0 3 88 c1 48 7 87 11 87 5 0 16 -11 25 -25 9 -14
21 -23 27 -20 5 4 -6 34 -26 69 l-35 63 0 156 0 157 -543 0 c-299 0 -547 -3
-550 -7z"/>
<path d="M20 781 c0 -11 5 -23 10 -26 6 -4 10 5 10 19 0 14 -4 26 -10 26 -5 0
-10 -9 -10 -19z"/>
<path d="M50 781 c0 -11 5 -23 10 -26 6 -4 10 5 10 19 0 14 -4 26 -10 26 -5 0
-10 -9 -10 -19z"/>
<path d="M1360 781 c0 -11 5 -23 10 -26 6 -4 10 5 10 19 0 14 -4 26 -10 26 -5
0 -10 -9 -10 -19z"/>
<path d="M1390 781 c0 -11 5 -23 10 -26 6 -4 10 5 10 19 0 14 -4 26 -10 26 -5
0 -10 -9 -10 -19z"/>
<path d="M723 445 c2 -5 10 -10 17 -10 7 0 15 5 17 10 2 6 -6 11 -17 11 -11 0
-19 -5 -17 -11z"/>
<path d="M193 425 c-9 -7 -13 -23 -11 -40 2 -24 8 -31 31 -33 15 -2 27 1 27 6
0 6 -8 8 -19 5 -11 -3 -21 2 -24 11 -11 27 3 45 34 44 26 -1 29 -4 29 -35 0
-18 5 -33 10 -33 6 0 10 15 10 34 0 19 6 36 13 39 6 2 -10 6 -37 8 -27 3 -55
0 -63 -6z"/>
<path d="M310 390 c0 -22 5 -40 10 -40 6 0 10 6 10 13 0 7 9 18 20 25 25 15
15 42 -16 42 -21 0 -24 -4 -24 -40z m35 21 c3 -5 1 -12 -5 -16 -5 -3 -10 1
-10 9 0 18 6 21 15 7z"/>
<path d="M376 413 c4 -10 8 -28 8 -40 1 -35 22 -27 39 15 l16 37 0 -37 c1 -21
6 -38 11 -38 6 0 10 7 10 15 0 8 7 15 15 15 8 0 15 -7 15 -15 0 -8 5 -15 10
-15 6 0 10 18 10 40 0 22 -4 40 -10 40 -5 0 -10 -7 -10 -15 0 -8 -7 -15 -15
-15 -8 0 -15 7 -15 15 0 24 -38 18 -46 -7 l-7 -23 -10 23 c-6 12 -14 22 -20
22 -5 0 -6 -8 -1 -17z"/>
<path d="M520 390 c0 -22 5 -40 10 -40 6 0 10 7 10 15 0 8 7 15 15 15 8 0 15
-7 15 -15 0 -8 5 -15 10 -15 6 0 10 18 10 40 0 22 -4 40 -10 40 -5 0 -10 -7
-10 -15 0 -8 -7 -15 -15 -15 -8 0 -15 7 -15 15 0 8 -4 15 -10 15 -5 0 -10 -18
-10 -40z"/>
<path d="M600 389 c0 -38 2 -40 27 -37 35 4 45 37 14 45 -12 3 -21 12 -21 19
0 8 -4 14 -10 14 -5 0 -10 -18 -10 -41z m42 -14 c0 -5 -5 -11 -11 -13 -6 -2
-11 4 -11 13 0 9 5 15 11 13 6 -2 11 -8 11 -13z"/>
<path d="M670 390 c0 -22 5 -40 10 -40 6 0 10 18 10 40 0 22 -4 40 -10 40 -5
0 -10 -18 -10 -40z"/>
<path d="M700 390 c0 -45 10 -51 33 -17 l16 22 0 -22 c1 -41 21 -24 21 17 0
45 -10 51 -33 18 l-16 -23 0 23 c-1 40 -21 23 -21 -18z"/>
<path d="M810 390 c0 -22 5 -40 10 -40 6 0 10 7 10 15 0 8 5 15 10 15 6 0 10
-7 10 -15 0 -8 5 -15 10 -15 12 0 13 10 1 29 -6 9 -6 22 0 33 12 23 0 23 -17
1 -13 -17 -13 -17 -14 0 0 37 -20 15 -20 -23z"/>
<path d="M880 390 c0 -39 1 -41 28 -38 24 3 27 7 27 38 0 31 -3 35 -27 38 -27
3 -28 1 -28 -38z m40 20 c0 -5 -4 -10 -10 -10 -5 0 -10 5 -10 10 0 6 5 10 10
10 6 0 10 -4 10 -10z m0 -40 c0 -5 -4 -10 -10 -10 -5 0 -10 5 -10 10 0 6 5 10
10 10 6 0 10 -4 10 -10z"/>
<path d="M957 390 c-17 -44 -16 -46 13 -27 17 10 22 9 30 -3 5 -8 11 -12 15
-9 7 8 -23 79 -34 79 -4 0 -15 -18 -24 -40z m33 0 c0 -5 -5 -10 -11 -10 -5 0
-7 5 -4 10 3 6 8 10 11 10 2 0 4 -4 4 -10z"/>
<path d="M1030 389 c0 -21 5 -39 10 -39 6 0 10 6 10 14 0 8 7 16 15 20 8 3 15
12 15 21 0 8 7 15 15 15 10 0 15 -11 15 -35 0 -19 5 -35 10 -35 6 0 10 16 10
35 0 19 5 35 10 35 6 0 10 -16 10 -35 0 -33 2 -35 33 -34 23 1 26 3 10 6 -26
5 -31 23 -8 23 8 0 15 5 15 10 0 6 -7 10 -15 10 -8 0 -15 5 -15 10 0 6 14 10
30 10 28 0 30 -3 30 -35 0 -19 5 -35 10 -35 6 0 10 15 10 34 0 19 6 37 13 40
6 2 -43 5 -110 4 l-123 0 0 -39z m35 22 c3 -5 1 -12 -5 -16 -5 -3 -10 1 -10 9
0 18 6 21 15 7z"/>
</g>
</svg>
